<svg xmlns="http://www.w3.org/2000/svg" xmlns:xlink="http://www.w3.org/1999/xlink" viewBox="0 0 1080 1080">
<rect width="1080" height="1080" fill="#ffffff"/>
  <defs><radialGradient id="g10" cx="0.35" cy="0.3" r="1"><stop offset="0" stop-color="#8fb0ff"/><stop offset="0.6" stop-color="#1230ff"/><stop offset="1" stop-color="#0000d0"/></radialGradient></defs>
  <circle cx="540" cy="540" r="210" fill="url(#g10)"/>
  <circle cx="540" cy="540" r="300" fill="none" stroke="#5b8cff" stroke-width="10"/>
  <circle cx="770" cy="347" r="26" fill="#0000ff"/>
  <g font-family="Helvetica,Arial,sans-serif" font-weight="700" font-size="38" fill="#0000ff" text-anchor="middle"><text transform="translate(540 148) rotate(0.0)">K</text><text transform="translate(567 149) rotate(3.9)">E</text><text transform="translate(593 152) rotate(7.8)">E</text><text transform="translate(620 156) rotate(11.7)">P</text><text transform="translate(646 163) rotate(15.7)">N</text><text transform="translate(671 171) rotate(19.6)">E</text><text transform="translate(696 180) rotate(23.5)">Y</text><text transform="translate(720 192) rotate(27.4)"> </text><text transform="translate(744 205) rotate(31.3)">·</text><text transform="translate(766 220) rotate(35.2)"> </text><text transform="translate(787 236) rotate(39.1)">K</text><text transform="translate(808 254) rotate(43.0)">E</text><text transform="translate(826 272) rotate(47.0)">E</text><text transform="translate(844 293) rotate(50.9)">P</text><text transform="translate(860 314) rotate(54.8)"> </text><text transform="translate(875 336) rotate(58.7)">A</text><text transform="translate(888 360) rotate(62.6)"> </text><text transform="translate(900 384) rotate(66.5)">W</text><text transform="translate(909 409) rotate(70.4)">O</text><text transform="translate(917 434) rotate(74.3)">R</text><text transform="translate(924 460) rotate(78.3)">D</text><text transform="translate(928 487) rotate(82.2)"> </text><text transform="translate(931 513) rotate(86.1)">·</text><text transform="translate(932 540) rotate(90.0)"> </text><text transform="translate(931 567) rotate(93.9)">E</text><text transform="translate(928 593) rotate(97.8)">A</text><text transform="translate(924 620) rotate(101.7)">R</text><text transform="translate(917 646) rotate(105.7)">N</text><text transform="translate(909 671) rotate(109.6)"> </text><text transform="translate(900 696) rotate(113.5)">O</text><text transform="translate(888 720) rotate(117.4)">N</text><text transform="translate(875 744) rotate(121.3)"> </text><text transform="translate(860 766) rotate(125.2)">E</text><text transform="translate(844 787) rotate(129.1)">V</text><text transform="translate(826 808) rotate(133.0)">E</text><text transform="translate(808 826) rotate(137.0)">R</text><text transform="translate(787 844) rotate(140.9)">Y</text><text transform="translate(766 860) rotate(144.8)"> </text><text transform="translate(744 875) rotate(148.7)">T</text><text transform="translate(720 888) rotate(152.6)">R</text><text transform="translate(696 900) rotate(156.5)">A</text><text transform="translate(671 909) rotate(160.4)">D</text><text transform="translate(646 917) rotate(164.3)">E</text><text transform="translate(620 924) rotate(168.3)"> </text><text transform="translate(593 928) rotate(172.2)">·</text><text transform="translate(567 931) rotate(176.1)"> </text><text transform="translate(540 932) rotate(180.0)">K</text><text transform="translate(513 931) rotate(183.9)">E</text><text transform="translate(487 928) rotate(187.8)">E</text><text transform="translate(460 924) rotate(191.7)">P</text><text transform="translate(434 917) rotate(195.7)">N</text><text transform="translate(409 909) rotate(199.6)">E</text><text transform="translate(384 900) rotate(203.5)">Y</text><text transform="translate(360 888) rotate(207.4)"> </text><text transform="translate(336 875) rotate(211.3)">·</text><text transform="translate(314 860) rotate(215.2)"> </text><text transform="translate(293 844) rotate(219.1)">K</text><text transform="translate(272 826) rotate(223.0)">E</text><text transform="translate(254 808) rotate(227.0)">E</text><text transform="translate(236 787) rotate(230.9)">P</text><text transform="translate(220 766) rotate(234.8)"> </text><text transform="translate(205 744) rotate(238.7)">A</text><text transform="translate(192 720) rotate(242.6)"> </text><text transform="translate(180 696) rotate(246.5)">W</text><text transform="translate(171 671) rotate(250.4)">O</text><text transform="translate(163 646) rotate(254.3)">R</text><text transform="translate(156 620) rotate(258.3)">D</text><text transform="translate(152 593) rotate(262.2)"> </text><text transform="translate(149 567) rotate(266.1)">·</text><text transform="translate(148 540) rotate(270.0)"> </text><text transform="translate(149 513) rotate(273.9)">E</text><text transform="translate(152 487) rotate(277.8)">A</text><text transform="translate(156 460) rotate(281.7)">R</text><text transform="translate(163 434) rotate(285.7)">N</text><text transform="translate(171 409) rotate(289.6)"> </text><text transform="translate(180 384) rotate(293.5)">O</text><text transform="translate(192 360) rotate(297.4)">N</text><text transform="translate(205 336) rotate(301.3)"> </text><text transform="translate(220 314) rotate(305.2)">E</text><text transform="translate(236 293) rotate(309.1)">V</text><text transform="translate(254 272) rotate(313.0)">E</text><text transform="translate(272 254) rotate(317.0)">R</text><text transform="translate(293 236) rotate(320.9)">Y</text><text transform="translate(314 220) rotate(324.8)"> </text><text transform="translate(336 205) rotate(328.7)">T</text><text transform="translate(360 192) rotate(332.6)">R</text><text transform="translate(384 180) rotate(336.5)">A</text><text transform="translate(409 171) rotate(340.4)">D</text><text transform="translate(434 163) rotate(344.3)">E</text><text transform="translate(460 156) rotate(348.3)"> </text><text transform="translate(487 152) rotate(352.2)">·</text><text transform="translate(513 149) rotate(356.1)"> </text></g>
</svg>